<mxfile host="65bd71144e">
    <diagram id="9QQnt636UzZMEgLfmAW1" name="Page-1">
        <mxGraphModel dx="761" dy="989" grid="1" gridSize="10" guides="1" tooltips="1" connect="1" arrows="1" fold="1" page="1" pageScale="1" pageWidth="850" pageHeight="1100" math="0" shadow="0">
            <root>
                <mxCell id="0"/>
                <mxCell id="1" parent="0"/>
                <mxCell id="2" value="" style="rounded=0;whiteSpace=wrap;html=1;" vertex="1" parent="1">
                    <mxGeometry x="40" y="40" width="760" height="540" as="geometry"/>
                </mxCell>
                <mxCell id="3" value="" style="rounded=0;whiteSpace=wrap;html=1;" vertex="1" parent="1">
                    <mxGeometry x="40" y="40" width="760" height="40" as="geometry"/>
                </mxCell>
                <mxCell id="4" value="logout" style="rounded=1;html=1;shadow=0;dashed=0;whiteSpace=wrap;fontSize=10;fillColor=#666666;align=center;strokeColor=#4D4D4D;fontColor=#ffffff;" vertex="1" parent="1">
                    <mxGeometry x="750" y="52" width="45.5" height="16.88" as="geometry"/>
                </mxCell>
                <mxCell id="5" value="Hello, holy@prince.com" style="text;strokeColor=none;align=center;fillColor=none;html=1;verticalAlign=middle;whiteSpace=wrap;rounded=0;" vertex="1" parent="1">
                    <mxGeometry x="600" y="45.44" width="140" height="30" as="geometry"/>
                </mxCell>
                <mxCell id="6" value="Croqueteria" style="text;strokeColor=none;align=center;fillColor=none;html=1;verticalAlign=middle;whiteSpace=wrap;rounded=0;" vertex="1" parent="1">
                    <mxGeometry x="50" y="45" width="80" height="30" as="geometry"/>
                </mxCell>
                <mxCell id="7" value="Copyright" style="rounded=0;whiteSpace=wrap;html=1;" vertex="1" parent="1">
                    <mxGeometry x="40" y="550" width="760" height="30" as="geometry"/>
                </mxCell>
                <mxCell id="10" value="" style="sketch=0;outlineConnect=0;fontColor=#232F3E;gradientColor=none;fillColor=#D45B07;strokeColor=none;dashed=0;verticalLabelPosition=bottom;verticalAlign=top;align=center;html=1;fontSize=12;fontStyle=0;aspect=fixed;pointerEvents=1;shape=mxgraph.aws4.container_registry_image;" vertex="1" parent="1">
                    <mxGeometry x="180" y="110" width="54" height="54" as="geometry"/>
                </mxCell>
                <mxCell id="11" value="Title (Country)" style="text;strokeColor=none;align=center;fillColor=none;html=1;verticalAlign=middle;whiteSpace=wrap;rounded=0;fontSize=18;" vertex="1" parent="1">
                    <mxGeometry x="260" y="110" width="120" height="30" as="geometry"/>
                </mxCell>
                <mxCell id="12" value="Lorem ipsum dolor sit amet, consetetur sadipscing elitr, sed diam nonumy eirmod tempor invidunt ut labore et dolore magna aliquyam erat, sed diam voluptua. At vero eos et accusam et justo duo dolores et ea rebum. Stet clita kasd gubergren, no sea takimata sanctus est Lorem ipsum dolor sit amet. Lorem ipsum dolor sit amet, consetetur sadipscing elitr, sed diam nonumy eirmod tempor invidunt ut labore et dolore magna aliquyam erat, sed diam voluptua. At vero eos et accusam et justo duo dolores et ea rebum. Stet clita kasd gubergren, no sea takimata sanctus est Lorem ipsum dolor sit amet." style="text;strokeColor=none;align=center;fillColor=none;html=1;verticalAlign=middle;whiteSpace=wrap;rounded=0;" vertex="1" parent="1">
                    <mxGeometry x="180" y="190" width="460" height="160" as="geometry"/>
                </mxCell>
                <mxCell id="13" value="Mean Rating" style="dashed=0;aspect=fixed;verticalLabelPosition=middle;verticalAlign=middle;align=right;shape=mxgraph.gmdl.star;strokeColor=none;fillColor=#737373;shadow=0;sketch=0;labelPosition=left;" vertex="1" parent="1">
                    <mxGeometry x="650" y="150" width="20" height="20" as="geometry"/>
                </mxCell>
                <mxCell id="32" value="Find recipes" style="rounded=1;html=1;shadow=0;dashed=0;whiteSpace=wrap;fontSize=10;fillColor=#666666;align=center;strokeColor=#4D4D4D;fontColor=#ffffff;" vertex="1" parent="1">
                    <mxGeometry x="367.25" y="360" width="105.5" height="16.88" as="geometry"/>
                </mxCell>
                <mxCell id="35" value="Spiciness" style="dashed=0;aspect=fixed;verticalLabelPosition=middle;verticalAlign=middle;align=right;shape=mxgraph.gmdl.star;strokeColor=none;fillColor=#737373;shadow=0;sketch=0;labelPosition=left;" vertex="1" parent="1">
                    <mxGeometry x="550" y="150" width="20" height="20" as="geometry"/>
                </mxCell>
                <mxCell id="36" value="Crunchiness" style="dashed=0;aspect=fixed;verticalLabelPosition=middle;verticalAlign=middle;align=right;shape=mxgraph.gmdl.star;strokeColor=none;fillColor=#737373;shadow=0;sketch=0;labelPosition=left;" vertex="1" parent="1">
                    <mxGeometry x="470" y="150" width="20" height="20" as="geometry"/>
                </mxCell>
                <mxCell id="37" value="Vegan" style="dashed=0;aspect=fixed;verticalLabelPosition=middle;verticalAlign=middle;align=right;shape=mxgraph.gmdl.star;strokeColor=none;fillColor=#737373;shadow=0;sketch=0;labelPosition=left;" vertex="1" parent="1">
                    <mxGeometry x="367.25" y="150" width="20" height="20" as="geometry"/>
                </mxCell>
                <mxCell id="38" value="Form" style="dashed=0;aspect=fixed;verticalLabelPosition=middle;verticalAlign=middle;align=right;shape=mxgraph.gmdl.star;strokeColor=none;fillColor=#737373;shadow=0;sketch=0;labelPosition=left;" vertex="1" parent="1">
                    <mxGeometry x="300" y="150" width="20" height="20" as="geometry"/>
                </mxCell>
                <mxCell id="39" value="Rating" style="dashed=0;aspect=fixed;verticalLabelPosition=middle;verticalAlign=middle;align=right;shape=mxgraph.gmdl.star;strokeColor=#0A0A0A;fillColor=#737373;shadow=0;sketch=0;labelPosition=left;" vertex="1" parent="1">
                    <mxGeometry x="531" y="110" width="20" height="20" as="geometry"/>
                </mxCell>
                <mxCell id="40" value="" style="dashed=0;aspect=fixed;verticalLabelPosition=middle;verticalAlign=middle;align=right;shape=mxgraph.gmdl.star;strokeColor=#0A0A0A;fillColor=#737373;shadow=0;sketch=0;labelPosition=left;" vertex="1" parent="1">
                    <mxGeometry x="561" y="110" width="20" height="20" as="geometry"/>
                </mxCell>
                <mxCell id="41" value="" style="dashed=0;aspect=fixed;verticalLabelPosition=middle;verticalAlign=middle;align=right;shape=mxgraph.gmdl.star;strokeColor=#0A0A0A;fillColor=#FFFF33;shadow=0;sketch=0;labelPosition=left;" vertex="1" parent="1">
                    <mxGeometry x="591" y="110" width="20" height="20" as="geometry"/>
                </mxCell>
                <mxCell id="42" value="" style="dashed=0;aspect=fixed;verticalLabelPosition=middle;verticalAlign=middle;align=right;shape=mxgraph.gmdl.star;strokeColor=#0A0A0A;fillColor=#FFFF33;shadow=0;sketch=0;labelPosition=left;" vertex="1" parent="1">
                    <mxGeometry x="621" y="110" width="20" height="20" as="geometry"/>
                </mxCell>
                <mxCell id="43" value="" style="dashed=0;aspect=fixed;verticalLabelPosition=middle;verticalAlign=middle;align=right;shape=mxgraph.gmdl.star;strokeColor=#0A0A0A;fillColor=#FFFF33;shadow=0;sketch=0;labelPosition=left;fontColor=#ffffff;labelBackgroundColor=none;noLabel=1;" vertex="1" parent="1">
                    <mxGeometry x="651" y="110" width="20" height="20" as="geometry"/>
                </mxCell>
            </root>
        </mxGraphModel>
    </diagram>
</mxfile>